<svg xmlns="http://www.w3.org/2000/svg" viewBox="0 0 64 64" fill="none" data-testid="brand-logo">
  <defs>
    <linearGradient id="ink" x1="0" y1="0" x2="40" y2="64" gradientUnits="userSpaceOnUse">
      <stop offset="0%" stop-color="#93C5FD"/>
      <stop offset="55%" stop-color="#3B82F6"/>
      <stop offset="100%" stop-color="#1D4ED8"/>
    </linearGradient>
    <linearGradient id="edge" x1="0" y1="0" x2="64" y2="64" gradientUnits="userSpaceOnUse">
      <stop offset="0%" stop-color="#60A5FA"/>
      <stop offset="100%" stop-color="#22D3EE"/>
    </linearGradient>
    <radialGradient id="gl" cx="0.5" cy="0.42" r="0.6">
      <stop offset="0%" stop-color="#3B82F6" stop-opacity=".35"/>
      <stop offset="100%" stop-color="#3B82F6" stop-opacity="0"/>
    </radialGradient>
  </defs>
  <rect x="2" y="2" width="60" height="60" rx="16" fill="#0A0F1E"/>
  <rect x="2" y="2" width="60" height="60" rx="16" fill="url(#gl)"/>
  <rect x="2.75" y="2.75" width="58.5" height="58.5" rx="15.5" fill="none" stroke="url(#edge)" stroke-width="1.6"/>
  <circle cx="11" cy="11" r="1.3" fill="#60A5FA"/>
  <circle cx="53" cy="11" r="1.3" fill="#60A5FA"/>
  <circle cx="11" cy="53" r="1.3" fill="#60A5FA"/>
  <circle cx="53" cy="53" r="1.3" fill="#60A5FA"/>
  <!-- IT monogramme -->
  <g fill="url(#ink)">
    <rect x="18" y="19" width="6" height="24" rx="1.4"/>
    <rect x="15" y="19" width="12" height="4" rx="1.4"/>
    <rect x="15" y="39" width="12" height="4" rx="1.4"/>
    <rect x="29" y="19" width="20" height="4.4" rx="1.4"/>
    <rect x="36" y="19" width="6" height="24" rx="1.4"/>
  </g>
  <!-- curseur terminal -->
  <rect x="24" y="46.5" width="16" height="3.2" rx="1.2" fill="#22D3EE"/>
</svg>
